<?xml version="1.0" encoding="UTF-8" standalone="no"?>
<!-- Created with Inkscape (http://www.inkscape.org/) -->

<svg
   xmlns:dc="http://purl.org/dc/elements/1.1/"
   xmlns:cc="http://creativecommons.org/ns#"
   xmlns:rdf="http://www.w3.org/1999/02/22-rdf-syntax-ns#"
   xmlns:svg="http://www.w3.org/2000/svg"
   xmlns="http://www.w3.org/2000/svg"
   xmlns:sodipodi="http://sodipodi.sourceforge.net/DTD/sodipodi-0.dtd"
   xmlns:inkscape="http://www.inkscape.org/namespaces/inkscape"
   width="210mm"
   height="297mm"
   viewBox="0 0 210 297"
   version="1.1"
   id="svg8"
   inkscape:version="0.92.2 (5c3e80d, 2017-08-06)"
   sodipodi:docname="DIN.svg">
  <sodipodi:namedview
     id="base"
     pagecolor="#ffffff"
     bordercolor="#666666"
     borderopacity="1.0"
     inkscape:pageopacity="0.0"
     inkscape:pageshadow="2"
     inkscape:zoom="2.8"
     inkscape:cx="266.17986"
     inkscape:cy="855.69816"
     inkscape:document-units="mm"
     inkscape:current-layer="layer1"
     showgrid="false"
     inkscape:window-width="1920"
     inkscape:window-height="1137"
     inkscape:window-x="1912"
     inkscape:window-y="-8"
     inkscape:window-maximized="1" />
  <defs
     id="defs2" />
  <metadata
     id="metadata5">
    <rdf:RDF>
      <cc:Work
         rdf:about="">
        <dc:format>image/svg+xml</dc:format>
        <dc:type
           rdf:resource="http://purl.org/dc/dcmitype/StillImage" />
        <dc:title></dc:title>
      </cc:Work>
    </rdf:RDF>
  </metadata>
  <g
     id="layer1"
     inkscape:groupmode="layer"
     inkscape:label="Layer 1">
    <circle
       style="opacity:1;fill:none;fill-opacity:1;stroke:#000000;stroke-width:1;stroke-linejoin:round;stroke-miterlimit:4;stroke-dasharray:none;stroke-opacity:1"
       id="circle837"
       cx="62.747612"
       cy="71.836884"
       r="15.234363" />
    <g
       id="g2528"
       transform="translate(-34.2105,4.1426777)">
      <path
         inkscape:connector-curvature="0"
         id="path0772"
         d="m 107.07412,69.787494 a 1.9711127,1.9711127 0 0 1 -1.97111,-1.971113 1.9711127,1.9711127 0 0 1 1.97111,-1.971112 1.9711127,1.9711127 0 0 1 1.97111,1.971112 1.9711127,1.9711127 0 0 1 -1.97111,1.971113 z"
         style="opacity:1;fill:none;fill-opacity:1;stroke:#000000;stroke-width:1;stroke-linejoin:round;stroke-miterlimit:4;stroke-dasharray:none;stroke-opacity:1" />
      <path
         inkscape:connector-curvature="0"
         id="path6361"
         d="m 104.07028,77.039397 a 1.9711127,1.9711127 0 0 1 -1.97111,-1.971113 1.9711127,1.9711127 0 0 1 1.97111,-1.971112 1.9711127,1.9711127 0 0 1 1.97112,1.971112 1.9711127,1.9711127 0 0 1 -1.97112,1.971113 z"
         style="opacity:1;fill:none;fill-opacity:1;stroke:#000000;stroke-width:1;stroke-linejoin:round;stroke-miterlimit:4;stroke-dasharray:none;stroke-opacity:1" />
      <path
         inkscape:connector-curvature="0"
         id="path0106"
         d="m 96.81838,80.043234 a 1.9711127,1.9711127 0 0 1 -1.971113,-1.971113 1.9711127,1.9711127 0 0 1 1.971113,-1.971112 1.9711127,1.9711127 0 0 1 1.971113,1.971112 1.9711127,1.9711127 0 0 1 -1.971113,1.971113 z"
         style="opacity:1;fill:none;fill-opacity:1;stroke:#000000;stroke-width:1;stroke-linejoin:round;stroke-miterlimit:4;stroke-dasharray:none;stroke-opacity:1" />
      <path
         inkscape:connector-curvature="0"
         id="path5615"
         d="m 89.566479,77.039397 a 1.9711127,1.9711127 0 0 1 -1.971113,-1.971113 1.9711127,1.9711127 0 0 1 1.971113,-1.971112 1.9711127,1.9711127 0 0 1 1.971113,1.971112 1.9711127,1.9711127 0 0 1 -1.971113,1.971113 z"
         style="opacity:1;fill:none;fill-opacity:1;stroke:#000000;stroke-width:1;stroke-linejoin:round;stroke-miterlimit:4;stroke-dasharray:none;stroke-opacity:1" />
      <path
         inkscape:connector-curvature="0"
         id="path2984"
         d="m 86.562643,69.787495 a 1.9711127,1.9711127 0 0 1 -1.971113,-1.971113 1.9711127,1.9711127 0 0 1 1.971113,-1.971112 1.9711127,1.9711127 0 0 1 1.971113,1.971112 1.9711127,1.9711127 0 0 1 -1.971113,1.971113 z"
         style="opacity:1;fill:none;fill-opacity:1;stroke:#000000;stroke-width:1;stroke-linejoin:round;stroke-miterlimit:4;stroke-dasharray:none;stroke-opacity:1" />
      <path
         inkscape:connector-curvature="0"
         id="path0837"
         d="m 89.566479,62.535593 a 1.9711127,1.9711127 0 0 1 -1.971113,-1.971113 1.9711127,1.9711127 0 0 1 1.971113,-1.971112 1.9711127,1.9711127 0 0 1 1.971113,1.971112 1.9711127,1.9711127 0 0 1 -1.971113,1.971113 z"
         style="opacity:1;fill:none;fill-opacity:1;stroke:#000000;stroke-width:1;stroke-linejoin:round;stroke-miterlimit:4;stroke-dasharray:none;stroke-opacity:1" />
      <path
         inkscape:connector-curvature="0"
         id="path6280"
         d="m 104.07028,62.535593 a 1.9711127,1.9711127 0 0 1 -1.97111,-1.971113 1.9711127,1.9711127 0 0 1 1.97111,-1.971112 1.9711127,1.9711127 0 0 1 1.97112,1.971112 1.9711127,1.9711127 0 0 1 -1.97112,1.971113 z"
         style="opacity:1;fill:none;fill-opacity:1;stroke:#000000;stroke-width:1;stroke-linejoin:round;stroke-miterlimit:4;stroke-dasharray:none;stroke-opacity:1" />
      <path
         inkscape:connector-curvature="0"
         id="path7557"
         d="m 107.07412,69.787494 a 1.9711127,1.9711127 0 0 1 -1.97111,-1.971113 1.9711127,1.9711127 0 0 1 1.97111,-1.971112 1.9711127,1.9711127 0 0 1 1.97111,1.971112 1.9711127,1.9711127 0 0 1 -1.97111,1.971113 z"
         style="opacity:1;fill:none;fill-opacity:1;stroke:#000000;stroke-width:1;stroke-linejoin:round;stroke-miterlimit:4;stroke-dasharray:none;stroke-opacity:1" />
    </g>
    <path
       style="fill:none;stroke:#000000;stroke-width:0.26458332px;stroke-linecap:butt;stroke-linejoin:miter;stroke-opacity:1"
       d="m 56.527503,62.738251 10.557148,-11.425772 24.722432,0"
       id="path2530"
       inkscape:connector-curvature="0" />
    <path
       style="fill:none;stroke:#000000;stroke-width:0.26458332px;stroke-linecap:butt;stroke-linejoin:miter;stroke-opacity:1"
       d="m 71.093694,63.139155 6.013564,-6.882191 14.499373,0"
       id="path2532"
       inkscape:connector-curvature="0" />
    <text
       xml:space="preserve"
       style="font-style:normal;font-variant:normal;font-weight:normal;font-stretch:normal;font-size:3.52777767px;line-height:1.25;font-family:'Microgramma D Extended';-inkscape-font-specification:'Microgramma D Extended';letter-spacing:0px;word-spacing:0px;fill:#000000;fill-opacity:1;stroke:none;stroke-width:0.26458332"
       x="94.346138"
       y="54.786983"
       id="text2536"><tspan
         sodipodi:role="line"
         id="tspan2534"
         x="94.346138"
         y="54.786983"
         style="stroke-width:0.26458332">9v AC</tspan></text>
    <text
       xml:space="preserve"
       style="font-style:normal;font-variant:normal;font-weight:normal;font-stretch:normal;font-size:3.52777767px;line-height:1.25;font-family:'Microgramma D Extended';-inkscape-font-specification:'Microgramma D Extended';letter-spacing:0px;word-spacing:0px;fill:#000000;fill-opacity:1;stroke:none;stroke-width:0.26458332"
       x="49.892857"
       y="38.464275"
       id="text2540"><tspan
         sodipodi:role="line"
         id="tspan2538"
         x="49.892857"
         y="38.464275"
         style="stroke-width:0.26458332">7Pin DIN male, </tspan><tspan
         sodipodi:role="line"
         x="49.892857"
         y="42.873997"
         style="stroke-width:0.26458332"
         id="tspan2542">solder side</tspan></text>
    <path
       style="fill:none;stroke:#000000;stroke-width:0.26458332px;stroke-linecap:butt;stroke-linejoin:miter;stroke-opacity:1"
       d="m 71.437499,80.041656 5.575149,5.57515"
       id="path2544"
       inkscape:connector-curvature="0" />
    <path
       style="fill:none;stroke:#000000;stroke-width:0.26458332px;stroke-linecap:butt;stroke-linejoin:miter;stroke-opacity:1"
       d="M 77.012648,85.616806 H 91.564731"
       id="path2546"
       inkscape:connector-curvature="0" />
    <path
       style="fill:none;stroke:#000000;stroke-width:0.26458332px;stroke-linecap:butt;stroke-linejoin:miter;stroke-opacity:1"
       d="m 64.350447,83.348948 9.921875,9.921875 17.386904,0"
       id="path2548"
       inkscape:connector-curvature="0" />
    <text
       xml:space="preserve"
       style="font-style:normal;font-variant:normal;font-weight:normal;font-stretch:normal;font-size:3.52777767px;line-height:1.25;font-family:'Microgramma D Extended';-inkscape-font-specification:'Microgramma D Extended';letter-spacing:0px;word-spacing:0px;fill:#000000;fill-opacity:1;stroke:none;stroke-width:0.26458332"
       x="94.399559"
       y="86.750732"
       id="text2552"><tspan
         sodipodi:role="line"
         id="tspan2550"
         x="94.399559"
         y="86.750732"
         style="stroke-width:0.26458332">5v DC</tspan></text>
    <text
       xml:space="preserve"
       style="font-style:normal;font-variant:normal;font-weight:normal;font-stretch:normal;font-size:3.52777767px;line-height:1.25;font-family:'Microgramma D Extended';-inkscape-font-specification:'Microgramma D Extended';letter-spacing:0px;word-spacing:0px;fill:#000000;fill-opacity:1;stroke:none;stroke-width:0.26458332"
       x="94.399544"
       y="94.404747"
       id="text2556"><tspan
         sodipodi:role="line"
         id="tspan2554"
         x="94.399544"
         y="94.404747"
         style="stroke-width:0.26458332">GND</tspan></text>
  </g>
</svg>
